<svg viewBox="-9.209 -11.162 100 100" xml:space="preserve" width="100" height="100" xmlns="http://www.w3.org/2000/svg"><path d="M70.211 84.15H11.263L-6.952 28.088l47.69-34.65 47.69 34.65zm-58.31-.877h57.673l17.824-54.85-46.66-33.901-46.659 33.9z" style="stroke-width:1.16915"/><path d="M64.919 77.532H16.557L1.612 31.537 40.738 3.11l39.126 28.426zm-47.725-.876h47.088l14.55-44.785L40.739 4.194 2.643 31.871z" style="stroke-width:1.16915"/><path d="M59.295 70.404H22.181L10.712 35.11l30.025-21.815L70.762 35.11zm-36.477-.877h35.839l11.075-34.084-28.995-21.067-28.993 21.067z" style="stroke-width:1.16915"/><path d="M54.403 64.405h-27.33L18.63 38.413l22.11-16.064 22.11 16.064zm-26.692-.877h26.055l8.052-24.78-21.08-15.317L19.66 38.747z" style="stroke-width:1.16915"/><path d="M54.403 64.405h-27.33L18.63 38.413l22.11-16.064 22.11 16.064zm-26.692-.877h26.055l8.052-24.78-21.08-15.317L19.66 38.747z" style="stroke-width:1.16915"/><path d="M49.375 58.194H32.1l-5.337-16.43 13.975-10.152 13.975 10.153zm-16.638-.877h16.002L53.683 42.1l-12.945-9.404L27.794 42.1z" style="stroke-width:1.16915"/><path transform="rotate(21.907)" style="stroke-width:1.16916" d="M4.57 28.325h50.847v.585H4.57z"/><path transform="rotate(38.659)" style="stroke-width:1.16918" d="M61.035 11.43h.585v46.706h-.585z"/><path transform="rotate(51.37)" style="stroke-width:1.16916" d="M62.328-2.636h46.706v.585H62.328z"/><path transform="rotate(68.137)" style="stroke-width:1.16918" d="M58.689-71.066h.586v50.846h-.586z"/><path style="stroke-width:1.16915" d="M40.446-6.021h.585v53.245h-.585z"/><path d="M89.155 28.498c0-.942-.763-1.705-1.706-1.705-.382 0-.731.13-1.016.343l-44.47-5.054a1.698 1.698 0 0 0-1.336-.656c-.73 0-1.35.464-1.592 1.112L12.037 34.02a1.706 1.706 0 1 0-1.316 3.143l5.066 38.645a1.693 1.693 0 0 0-.434 1.126 1.705 1.705 0 0 0 3.124.946l39.289-6.683a1.68 1.68 0 0 0 1.018.346c.882 0 1.598-.671 1.687-1.53l27.137-39.824a1.7 1.7 0 0 0 1.547-1.69zM58.918 68.143c-.045-.003-.087-.014-.133-.014-.591 0-1.111.303-1.418.76l-39.253 6.678-5.164-39.394 26.996-11.48a1.68 1.68 0 0 0 1.8-.282l43.594 4.955z" style="stroke-width:1.16915;fill:red"/></svg>